<?xml version="1.0" encoding="UTF-8"?>
<svg width="49px" height="50px" viewBox="0 0 49 50" version="1.1" xmlns="http://www.w3.org/2000/svg" xmlns:xlink="http://www.w3.org/1999/xlink">
    <!-- Generator: Sketch 41.2 (35397) - http://www.bohemiancoding.com/sketch -->
    <title>icon-rocket</title>
    <desc>Created with Sketch.</desc>
    <defs></defs>
    <g id="Page-1" stroke="none" stroke-width="1" fill="none" fill-rule="evenodd">
        <g id="Desktop-HD" transform="translate(-519.000000, -453.000000)">
            <g id="Features-Left" transform="translate(120.000000, 450.000000)">
                <g id="Dedicated-Servers" transform="translate(395.000000, 0.000000)">
                    <g id="icon-rocket">
                        <g id="rocket" transform="translate(3.000000, 3.000000)">
                            <g id="Group">
                                <path d="M34.075,22.5454545 C30.6989,22.5454545 27.95,19.7914545 27.95,16.4090909 C27.95,13.0267273 30.6989,10.2727273 34.075,10.2727273 C37.4511,10.2727273 40.2,13.0267273 40.2,16.4090909 C40.2,19.7914545 37.4511,22.5454545 34.075,22.5454545 Z M34.075,12.7272727 C32.04885,12.7272727 30.4,14.3791818 30.4,16.4090909 C30.4,18.439 32.04885,20.0909091 34.075,20.0909091 C36.10115,20.0909091 37.75,18.439 37.75,16.4090909 C37.75,14.3791818 36.10115,12.7272727 34.075,12.7272727 Z" id="Shape" fill="#1B546A"></path>
                                <path d="M2.225,49.5454545 C1.9065,49.5454545 1.5929,49.4202727 1.3577,49.1870909 C1.02205,48.8508182 0.90935,48.3476364 1.0735,47.9009091 C4.84405,37.5157273 8.80815,32.2482727 12.8531,32.2482727 C14.18835,32.2482727 15.4354,32.8226364 16.56485,33.9517273 C18.34845,35.7386364 18.41215,37.5181818 18.15245,38.6963636 C17.33415,42.3978182 12.11565,46.0231818 2.64395,49.4742727 C2.50675,49.5233636 2.36465,49.5479091 2.225,49.5479091 L2.225,49.5454545 Z M12.85555,34.7003636 C11.6428,34.7003636 10.21445,35.7656364 8.7273,37.7808182 C7.26465,39.7616364 5.79465,42.5843636 4.3467,46.1925455 C7.61745,44.8744545 10.2463,43.5367273 12.18425,42.2039091 C14.7984,40.4047273 15.5726,39.013 15.76125,38.1637273 C15.9499,37.3144545 15.6461,36.502 14.8327,35.6870909 C14.1712,35.0243636 13.5244,34.7028182 12.8531,34.7028182 L12.85555,34.7003636 Z" id="Shape" fill="#53C283"></path>
                                <path d="M48.775,0.454545455 C42.41725,0.454545455 36.75285,1.53454545 31.9337,3.66509091 C27.96225,5.42254545 24.56165,7.88690909 21.825,10.9943636 C21.3154,11.5736364 20.84255,12.1602727 20.404,12.7493636 C18.2921,12.8892727 16.1312,13.7311818 13.9752,15.253 C12.14995,16.5391818 10.31735,18.3211818 8.52395,20.5474545 C5.51045,24.2881818 3.65825,27.9773636 3.57985,28.132 C3.3128,28.6695455 3.47205,29.3224545 3.95715,29.6734545 C4.17275,29.8305455 4.4251,29.9066364 4.675,29.9066364 C4.9886,29.9066364 5.3022,29.7863636 5.53985,29.5507273 C5.5521,29.5384545 6.7232,28.3848182 8.71995,27.2532727 C10.36635,26.3205455 12.90455,25.2233636 15.9744,25.0294545 C16.75105,27.0200909 18.9732,29.401 20.03895,30.4687273 C21.1047,31.5364545 23.4812,33.7627273 25.46815,34.5408182 C25.2746,37.6163636 24.17945,40.1592727 23.24845,41.8087273 C22.11655,43.8116364 20.9675,44.9824545 20.9577,44.9922727 C20.53385,45.4169091 20.47995,46.0894545 20.8303,46.5779091 C21.06795,46.9068182 21.44035,47.0884545 21.825,47.0884545 C22.0112,47.0884545 22.1974,47.0467273 22.37135,46.9583636 C22.5257,46.8798182 26.20805,45.0241818 29.94185,42.0050909 C32.164,40.2083636 33.9427,38.3723636 35.2265,36.5437273 C36.7455,34.3812727 37.5834,32.2188182 37.7255,30.103 C38.31105,29.6660909 38.8966,29.1923636 39.47725,28.6793636 C42.57895,25.9376364 45.03875,22.5307273 46.79295,18.5519091 C48.91955,13.7262727 49.99755,8.04890909 49.99755,1.67936364 L49.99755,0.452090909 L48.77255,0.452090909 L48.775,0.454545455 Z M8.61215,24.5287273 C10.947,21.1340909 14.51665,16.9245455 18.53955,15.6015455 C16.9495,18.3923636 16.1263,20.9549091 15.82985,22.5798182 C12.9903,22.7540909 10.54275,23.5812727 8.61215,24.5287273 Z M25.97285,41.9118182 C26.91855,39.9776364 27.7442,37.528 27.9157,34.6856364 C29.53515,34.3886364 32.0954,33.5639091 34.8786,31.9733636 C33.5556,35.9963636 29.3563,39.5726364 25.9704,41.9118182 L25.97285,41.9118182 Z M37.8578,26.8409091 C32.7618,31.345 27.4845,32.3636364 26.725,32.3636364 C26.7201,32.3636364 26.21785,32.3538182 24.86545,31.399 C23.9222,30.7338182 22.82215,29.7863636 21.77355,28.7358182 C20.72495,27.6852727 19.77925,26.5831818 19.1153,25.6381818 C18.16225,24.2832727 18.15245,23.7800909 18.15245,23.7751818 C18.15245,23.0142727 19.1692,17.7271818 23.66495,12.6217273 C29.04515,6.51481818 37.2796,3.17418182 47.53775,2.92627273 C47.2903,13.2034545 43.9583,21.4531818 37.86025,26.8433636 L37.8578,26.8409091 Z" id="Shape" fill="#212B35"></path>
                            </g>
                        </g>
                    </g>
                </g>
            </g>
        </g>
    </g>
</svg>