<?xml version="1.0" encoding="UTF-8"?>
<svg width="56px" height="34px" viewBox="0 0 56 34" version="1.1" xmlns="http://www.w3.org/2000/svg" xmlns:xlink="http://www.w3.org/1999/xlink">
    <!-- Generator: Sketch 41.2 (35397) - http://www.bohemiancoding.com/sketch -->
    <title>icon-cloud</title>
    <desc>Created with Sketch.</desc>
    <defs></defs>
    <g id="Page-1" stroke="none" stroke-width="1" fill="none" fill-rule="evenodd">
        <g id="Desktop-HD" transform="translate(-120.000000, -461.000000)">
            <g id="Features-Left" transform="translate(120.000000, 450.000000)">
                <g id="Automatic-IP-Rotation">
                    <g id="icon-cloud">
                        <g id="cloud-sync" transform="translate(0.000000, 11.000000)">
                            <g id="Group">
                                <path d="M44.8168,11.8793846 C44.646,11.8793846 44.4752,11.8821538 44.3044,11.8904615 C44.6292,10.9987692 44.8,10.0461538 44.8,9.07415385 C44.8,4.49384615 41.0312,0.766461538 36.4,0.766461538 C33.7456,0.766461538 31.2172,2.02923077 29.638,4.14492308 C29.2768,4.62676923 28.9744,5.14184615 28.7308,5.68184615 C25.5864,2.54707692 21.2884,0.766461538 16.8,0.766461538 C7.5376,0.766461538 0,8.22123077 0,17.3818462 C0,26.5424615 7.5376,33.9972308 16.8,33.9972308 L44.8168,33.9972308 C50.9824,33.9972308 56,29.0347692 56,22.9369231 C56,16.8390769 50.9824,11.8766154 44.8168,11.8766154 L44.8168,11.8793846 Z M44.8168,31.2307692 L16.8,31.2307692 C9.0804,31.2307692 2.8,25.0193846 2.8,17.3846154 C2.8,9.74984615 9.0804,3.53846154 16.8,3.53846154 C20.7984,3.53846154 24.6148,5.236 27.272,8.19353846 C27.622,8.584 27.9524,8.99661538 28.2548,9.41753846 L28.2688,9.43692308 C28.6104,9.91876923 29.2208,10.1375385 29.7948,9.97692308 C30.3688,9.81630769 30.7776,9.31784615 30.814,8.728 C30.8812,7.66461538 31.2536,6.64830769 31.8948,5.78984615 C32.9644,4.35815385 34.608,3.53569231 36.4056,3.53569231 C39.494,3.53569231 42.0056,6.01969231 42.0056,9.07415385 C42.0056,10.5003077 41.4596,11.8544615 40.4656,12.8873846 C40.0176,13.3526154 39.9532,14.0615385 40.3088,14.5987692 C40.6644,15.136 41.3476,15.3603077 41.958,15.1415385 C42.8736,14.812 43.8368,14.6458462 44.8224,14.6458462 C49.4452,14.6458462 53.2056,18.3649231 53.2056,22.9369231 C53.2056,27.5089231 49.4452,31.228 44.8224,31.228 L44.8168,31.2307692 Z" id="Shape" fill="#212B35"></path>
                                <path d="M17.9312,22.8095385 C17.5616,22.8843077 17.1808,22.9230769 16.8,22.9230769 C13.7116,22.9230769 11.2,20.4390769 11.2,17.3846154 L11.2,16.5732308 L11.6088,16.9775385 C11.8832,17.2489231 12.2416,17.3818462 12.6,17.3818462 C12.9584,17.3818462 13.3168,17.2461538 13.5912,16.9775385 C14.1372,16.4375385 14.1372,15.5596923 13.5912,15.0196923 L10.7912,12.2504615 C10.2452,11.7104615 9.3576,11.7104615 8.8116,12.2504615 L6.0116,15.0196923 C5.4656,15.5596923 5.4656,16.4375385 6.0116,16.9775385 C6.5576,17.5175385 7.4452,17.5175385 7.9912,16.9775385 L8.4,16.5732308 L8.4,17.3846154 C8.4,21.9649231 12.1688,25.6923077 16.8,25.6923077 C17.3684,25.6923077 17.9368,25.6341538 18.4912,25.5233846 C19.25,25.3710769 19.7372,24.6372308 19.5832,23.8895385 C19.4292,23.1418462 18.69,22.6572308 17.9312,22.8095385 Z" id="Shape" fill="#53C283"></path>
                                <path d="M25.2,18.1932308 L25.2,17.3818462 C25.2,12.8015385 21.4312,9.07415385 16.8,9.07415385 C16.2316,9.07415385 15.6632,9.13230769 15.1088,9.24307692 C14.35,9.39538462 13.8628,10.1292308 14.0168,10.8769231 C14.1708,11.6246154 14.9128,12.1092308 15.6688,11.9569231 C16.0384,11.8821538 16.4192,11.8433846 16.8,11.8433846 C19.8884,11.8433846 22.4,14.3273846 22.4,17.3818462 L22.4,18.1932308 L21.9912,17.7889231 C21.4452,17.2489231 20.5576,17.2489231 20.0116,17.7889231 C19.4656,18.3289231 19.4656,19.2067692 20.0116,19.7467692 L22.8116,22.516 C23.086,22.7873846 23.4444,22.9203077 23.8028,22.9203077 C24.1612,22.9203077 24.5196,22.7846154 24.794,22.516 L27.594,19.7467692 C28.14,19.2067692 28.14,18.3289231 27.594,17.7889231 C27.048,17.2489231 26.1604,17.2489231 25.6144,17.7889231 L25.2,18.1932308 Z" id="Shape" fill="#1B546A"></path>
                            </g>
                        </g>
                    </g>
                </g>
            </g>
        </g>
    </g>
</svg>